<svg width="24" height="24" viewBox="0 0 24 24" fill="none" xmlns="http://www.w3.org/2000/svg">
<circle cx="12" cy="12" r="12" fill="#F2F0F2"/>
<mask id="mask0_1520_402" style="mask-type:alpha" maskUnits="userSpaceOnUse" x="0" y="0" width="24" height="24">
<circle cx="12" cy="12" r="12" fill="#FCFCFC"/>
</mask>
<g mask="url(#mask0_1520_402)">
<rect x="3.90002" y="21.2998" width="16.5" height="3" fill="#D90026"/>
<rect x="3.90002" y="21.2998" width="16.5" height="3" fill="#D90026"/>
<rect x="0.300018" y="15.2998" width="23.7" height="3" fill="#D90026"/>
<rect x="0.300018" y="15.2998" width="23.7" height="3" fill="#D90026"/>
<rect x="0.300018" y="9" width="23.7" height="3" fill="#D90026"/>
<rect x="0.300018" y="9" width="23.7" height="3" fill="#D90026"/>
<rect x="0.300018" y="3" width="23.7" height="3" fill="#D90026"/>
<rect x="0.300018" y="3" width="23.7" height="3" fill="#D90026"/>
<rect width="12.3" height="12" fill="#0052B5"/>
<path d="M9.89998 10.0496L8.99998 10.4996L9.29998 9.59961L8.69998 8.99961H9.59998L9.89998 8.09961L10.35 8.99961H11.1L10.5 9.59961L10.8 10.4996L9.89998 10.0496Z" fill="#EFEFEF"/>
<path d="M5.7 10.0496L4.8 10.4996L5.1 9.59961L4.5 8.99961H5.4L5.7 8.09961L6.15 8.99961H6.9L6.3 9.59961L6.6 10.4996L5.7 10.0496Z" fill="#EFEFEF"/>
<path d="M1.50002 10.0496L0.600018 10.4996L0.900018 9.59961L0.300018 8.99961H1.20002L1.50002 8.09961L1.95002 8.99961H2.70002L2.10002 9.59961L2.40002 10.4996L1.50002 10.0496Z" fill="#EFEFEF"/>
<path d="M9.89998 6.7498L8.99998 7.1998L9.29998 6.2998L8.69998 5.6998H9.59998L9.89998 4.7998L10.35 5.6998H11.1L10.5 6.2998L10.8 7.1998L9.89998 6.7498Z" fill="#EFEFEF"/>
<path d="M9.89998 3.45L8.99998 3.9L9.29998 3L8.69998 2.4H9.59998L9.89998 1.5L10.35 2.4H11.1L10.5 3L10.8 3.9L9.89998 3.45Z" fill="#EFEFEF"/>
<path d="M9.89998 0.150195L8.99998 0.600195L9.29998 -0.299805L8.69998 -0.899805H9.59998L9.89998 -1.7998L10.35 -0.899805H11.1L10.5 -0.299805L10.8 0.600195L9.89998 0.150195Z" fill="#EFEFEF"/>
<path d="M5.7 3.45L4.8 3.9L5.1 3L4.5 2.4H5.4L5.7 1.5L6.15 2.4H6.9L6.3 3L6.6 3.9L5.7 3.45Z" fill="#EFEFEF"/>
<path d="M5.7 6.7498L4.8 7.1998L5.1 6.2998L4.5 5.6998H5.4L5.7 4.7998L6.15 5.6998H6.9L6.3 6.2998L6.6 7.1998L5.7 6.7498Z" fill="#EFEFEF"/>
<path d="M1.50002 6.7498L0.600018 7.1998L0.900018 6.2998L0.300018 5.6998H1.20002L1.50002 4.7998L1.95002 5.6998H2.70002L2.10002 6.2998L2.40002 7.1998L1.50002 6.7498Z" fill="#EFEFEF"/>
</g>
</svg>
