<svg width="56" height="56" viewBox="0 0 56 56" fill="none" xmlns="http://www.w3.org/2000/svg">
<g clip-path="url(#clip0_888_1010)">
<path d="M55.0929 50.315H53.0972V39.6109C53.0972 39.11 52.691 38.7038 52.1901 38.7038H51.162V36.7081C51.162 35.6744 50.321 34.8334 49.2873 34.8334H45.3564V23.1617C45.3564 22.6607 44.9502 22.2546 44.4492 22.2546H43.3121C42.9755 20.8812 41.8918 19.7985 40.5184 19.4617V13.4857C40.5184 12.9847 40.1122 12.5785 39.6112 12.5785C39.1103 12.5785 38.7041 12.9847 38.7041 13.4857V19.4617C37.3307 19.7985 36.2471 20.8812 35.9104 22.2546H35.6803V14.4533C35.6803 14.1307 35.509 13.8323 35.2303 13.6696L24.0691 7.159V4.77724C24.0691 4.27627 23.663 3.87012 23.162 3.87012C22.661 3.87012 22.2549 4.27627 22.2549 4.77724V19.3518H16.3888C15.8878 19.3518 15.4816 19.7579 15.4816 20.2589V31.1618L4.55753 33.8929C4.15368 33.9939 3.87041 34.3567 3.87041 34.7729V50.315H0.907127C0.406151 50.315 0 50.7212 0 51.2222C0 51.7231 0.406151 52.1293 0.907127 52.1293H55.0929C55.5938 52.1293 56 51.7231 56 51.2222C56 50.7212 55.5938 50.315 55.0929 50.315ZM41.5464 38.7038C41.0455 38.7038 40.6393 39.11 40.6393 39.6109V45.477H35.6803V37.6153H42.5745V38.7038H41.5464ZM51.2829 46.4446H42.4536V44.3885H51.2829V46.4446ZM42.8098 35.801H35.6803V27.9392H43.5421V35.0687C43.2348 35.2394 42.9805 35.4937 42.8098 35.801ZM35.6803 47.2913H40.6393V50.315H35.6803V47.2913ZM42.4536 48.2589H51.2829V50.315H42.4536V48.2589ZM51.2829 42.5742H42.4536V40.5181H51.2829V42.5742ZM49.3477 36.7081V38.7038H44.3888V36.7081C44.3888 36.6748 44.4159 36.6477 44.4492 36.6477H49.2873C49.3206 36.6477 49.3477 36.6748 49.3477 36.7081ZM36.7084 24.0688C37.2094 24.0688 37.6156 23.6627 37.6156 23.1617C37.6156 22.0613 38.5108 21.166 39.6112 21.166C40.7116 21.166 41.6069 22.0613 41.6069 23.1617C41.6069 23.6627 42.0131 24.0688 42.514 24.0688H43.5421V26.125H35.6803V24.0688H36.7084ZM24.0691 9.25942L33.8661 14.9743V50.315H31.8099V16.3885C31.8099 15.8875 31.4038 15.4813 30.9028 15.4813C30.4018 15.4813 29.9957 15.8875 29.9957 16.3885V50.315H27.9395V20.2589C27.9395 19.7579 27.5334 19.3518 27.0324 19.3518H24.0691V9.25942ZM26.1253 40.5181V42.5742H17.2959V40.5181H26.1253ZM17.2959 38.7038V36.6477H26.1253V38.7038H17.2959ZM26.1253 30.963H17.2959V28.9068H26.1253V30.963ZM26.1253 32.7772V34.8334H17.2959V32.7772H26.1253ZM17.2959 44.3885H26.1253V46.4446H17.2959V44.3885ZM26.1253 27.0926H17.2959V25.0364H26.1253V27.0926ZM17.2959 48.2589H26.1253V50.315H17.2959V48.2589ZM26.1253 21.166V23.2222H17.2959V21.166H26.1253ZM5.68467 35.4812L15.4816 33.032V50.315H13.4255V37.6757C13.4255 37.1748 13.0193 36.7686 12.5184 36.7686C12.0174 36.7686 11.6112 37.1748 11.6112 37.6757V50.315H9.55508V38.6433C9.55508 38.1424 9.14892 37.7362 8.64795 37.7362C8.14697 37.7362 7.74082 38.1424 7.74082 38.6433V50.315H5.68467V35.4812Z" fill="#035B8D"/>
</g>
<defs>
<clipPath id="clip0_888_1010">
<rect width="56" height="56" fill="white"/>
</clipPath>
</defs>
</svg>
