<svg width="56" height="56" viewBox="0 0 56 56" fill="none" xmlns="http://www.w3.org/2000/svg">
<g clip-path="url(#clip0_888_960)">
<path d="M55.1231 54.2464H54.1294V0.876859C54.1294 0.392656 53.7368 0 53.2525 0H30.8058C30.3216 0 29.9289 0.392547 29.9289 0.876859V7.48223H15.8413C15.3571 7.48223 14.9645 7.87478 14.9645 8.35909V20.5762H1.81213C0.812875 20.5762 0 21.389 0 22.3883V41.0939C0 42.0932 0.812875 42.9061 1.81213 42.9061H14.9644V54.2464H13.9707C13.4865 54.2464 13.0938 54.6388 13.0938 55.1233C13.0938 55.6076 13.4864 56.0001 13.9707 56.0001H55.1231C55.6073 56.0001 56 55.6077 56 55.1233C56 54.6388 55.6075 54.2464 55.1231 54.2464ZM29.929 54.2464H16.7181V42.9061H18.7056V44.8351C18.7056 45.3193 19.0982 45.712 19.5825 45.712C20.0668 45.712 20.4594 45.3194 20.4594 44.8351V42.9061H22.4468V44.8351C22.4468 45.3193 22.8394 45.712 23.3237 45.712C23.808 45.712 24.2005 45.3194 24.2005 44.8351V42.9061H26.188V44.8351C26.188 45.3193 26.5805 45.712 27.0648 45.712C27.5492 45.712 27.9417 45.3194 27.9417 44.8351V42.9061H29.8708C29.8905 42.9061 29.9098 42.9044 29.9292 42.9031V54.2464H29.929ZM29.929 37.4113H25.6348C27.0441 36.0485 27.9415 34.0129 27.9415 31.7412C27.9415 29.4695 27.0441 27.4339 25.6348 26.0711H29.929V37.4113ZM16.7182 31.7412C16.7182 28.6147 18.8422 26.0711 21.453 26.0711C24.0638 26.0711 26.1879 28.6147 26.1879 31.7412C26.1879 34.8677 24.0638 37.4113 21.453 37.4113C18.8422 37.4113 16.7182 34.8677 16.7182 31.7412ZM17.2713 37.4113H9.15239C8.79648 35.5666 7.3395 34.1095 5.49478 33.7537V29.7286C7.3395 29.3727 8.79659 27.9157 9.15239 26.071H17.2713C15.8618 27.4339 14.9645 29.4695 14.9645 31.7412C14.9645 34.0129 15.8619 36.0485 17.2713 37.4113ZM29.929 24.3173H8.35909C7.87489 24.3173 7.48223 24.7099 7.48223 25.1942C7.48223 26.7736 6.1973 28.0585 4.61792 28.0585C4.13372 28.0585 3.74106 28.4511 3.74106 28.9354V34.5471C3.74106 35.0313 4.13361 35.4239 4.61792 35.4239C6.1973 35.4239 7.48223 36.7089 7.48223 38.2882C7.48223 38.7725 7.87478 39.1651 8.35909 39.1651H29.929V41.1555C29.9097 41.1542 29.8903 41.1526 29.8706 41.1526H1.81213C1.77986 41.1526 1.75372 41.1264 1.75372 41.0942V22.3883C1.75372 22.356 1.77986 22.3299 1.81213 22.3299H29.8705C29.8903 22.3299 29.9096 22.3283 29.9289 22.3269V24.3173H29.929ZM29.929 20.5791C29.9097 20.5778 29.8903 20.5762 29.8706 20.5762H27.9416V18.6471C27.9416 18.1629 27.549 17.7703 27.0647 17.7703C26.5804 17.7703 26.1879 18.1628 26.1879 18.6471V20.5762H24.2004V18.6471C24.2004 18.1629 23.8079 17.7703 23.3236 17.7703C22.8393 17.7703 22.4467 18.1628 22.4467 18.6471V20.5762H20.4592V18.6471C20.4592 18.1629 20.0667 17.7703 19.5824 17.7703C19.0981 17.7703 18.7055 18.1628 18.7055 18.6471V20.5762H16.7181V9.23595H29.9289V20.5791H29.929ZM39.2818 54.2464H35.4238V49.453H39.2818V54.2464ZM39.2818 47.6994H35.4238V45.712H39.2818V47.6994ZM39.2818 43.9582H35.4238V39.1649H39.2818V43.9582ZM48.6347 54.2464H44.7767V49.453H48.6347V54.2464ZM48.6347 47.6994H44.7767V45.712H48.6347V47.6994ZM48.6347 43.9582H44.7767V39.1649H48.6347V43.9582ZM52.3758 54.2464H50.3883V38.2881C50.3883 37.8039 49.9958 37.4113 49.5114 37.4113H43.8998C43.4156 37.4113 43.023 37.8038 43.023 38.2881V54.2464H41.0355V38.2881C41.0355 37.8039 40.643 37.4113 40.1587 37.4113H34.547C34.0628 37.4113 33.6701 37.8038 33.6701 38.2881V54.2464H31.6827V33.5532H33.6701V34.547C33.6701 35.0312 34.0627 35.4238 34.547 35.4238H40.1587C40.6429 35.4238 41.0355 35.0313 41.0355 34.547V33.5532H43.023V34.547C43.023 35.0312 43.4155 35.4238 43.8998 35.4238H49.5115C49.9958 35.4238 50.3884 35.0313 50.3884 34.547V33.5532H52.3759L52.3758 54.2464ZM35.4238 33.6701V27.9415H39.2818V33.6701H35.4238ZM44.7766 33.6701V27.9415H48.6346V33.6701H44.7766ZM52.3758 31.7996H50.3883V27.0647C50.3883 26.5805 49.9958 26.1879 49.5114 26.1879H43.8998C43.4156 26.1879 43.023 26.5804 43.023 27.0647V31.7996H41.0355V27.0647C41.0355 26.5805 40.643 26.1879 40.1587 26.1879H34.547C34.0628 26.1879 33.6701 26.5804 33.6701 27.0647V31.7996H31.6827V1.75361H52.3758V31.7996Z" fill="#035B8D"/>
<path d="M4.61803 24.3125C4.13382 24.3125 3.73657 24.7097 3.73657 25.194C3.73657 25.6782 4.13382 26.0754 4.61803 26.0754C5.10223 26.0754 5.49948 25.6782 5.49948 25.194C5.49948 24.7097 5.10234 24.3125 4.61803 24.3125Z" fill="#035B8D"/>
<path d="M4.61803 37.4111C4.13382 37.4111 3.73657 37.8084 3.73657 38.2926C3.73657 38.7768 4.13382 39.174 4.61803 39.174C5.10223 39.174 5.49948 38.7768 5.49948 38.2926C5.49948 37.8084 5.10234 37.4111 4.61803 37.4111Z" fill="#035B8D"/>
<path d="M10.2296 28.9941C8.71462 28.9941 7.48218 30.2266 7.48218 31.7415C7.48218 33.2565 8.71462 34.4889 10.2296 34.4889C11.7445 34.4889 12.977 33.2565 12.977 31.7415C12.977 30.2266 11.7445 28.9941 10.2296 28.9941ZM10.2296 32.7352C9.6816 32.7352 9.23579 32.2894 9.23579 31.7414C9.23579 31.1935 9.6816 30.7476 10.2296 30.7476C10.7775 30.7476 11.2233 31.1935 11.2233 31.7414C11.2233 32.2895 10.7775 32.7352 10.2296 32.7352Z" fill="#035B8D"/>
<path d="M21.7146 30.904C20.4848 30.5198 20.46 30.3182 20.4593 30.1717C20.5027 30.068 20.8586 29.8119 21.4531 29.8119C22.0573 29.8119 22.41 30.0726 22.4486 30.1763C22.6174 30.63 23.1219 30.8612 23.5761 30.6925C24.0299 30.5237 24.2611 30.0189 24.0923 29.5651C23.8397 28.8857 23.1747 28.3748 22.3301 28.1643V27.9999C22.3301 27.5157 21.9375 27.123 21.4532 27.123C20.969 27.123 20.5763 27.5156 20.5763 27.9999V28.1645C19.4785 28.4389 18.7058 29.2188 18.7058 30.1628C18.7058 31.8011 20.3229 32.3064 21.1917 32.578C22.4215 32.9622 22.4463 33.1638 22.447 33.3104C22.4036 33.4141 22.0477 33.6701 21.4532 33.6701C20.849 33.6701 20.4963 33.4095 20.4577 33.3058C20.2889 32.8518 19.7844 32.6207 19.3302 32.7895C18.8764 32.9583 18.6452 33.4632 18.814 33.917C19.0666 34.5963 19.7316 35.1072 20.5762 35.3177V35.482C20.5762 35.9662 20.9688 36.3589 21.4531 36.3589C21.9374 36.3589 22.33 35.9663 22.33 35.482V35.3174C23.4277 35.043 24.2005 34.2632 24.2005 33.3191C24.2005 31.6809 22.5834 31.1756 21.7146 30.904Z" fill="#035B8D"/>
<path d="M40.1587 3.74121H34.547C34.0628 3.74121 33.6702 4.13376 33.6702 4.61807V12.1003C33.6702 12.5845 34.0627 12.9772 34.547 12.9772H40.1587C40.6429 12.9772 41.0356 12.5846 41.0356 12.1003V4.61796C41.0356 4.13376 40.6429 3.74121 40.1587 3.74121ZM39.2819 11.2234H35.4239V5.49482H39.2819V11.2234Z" fill="#035B8D"/>
<path d="M49.5114 3.74121H43.8998C43.4156 3.74121 43.0229 4.13376 43.0229 4.61807V12.1003C43.0229 12.5845 43.4155 12.9772 43.8998 12.9772H49.5115C49.9957 12.9772 50.3884 12.5846 50.3884 12.1003V4.61796C50.3883 4.13376 49.9957 3.74121 49.5114 3.74121ZM48.6347 11.2234H44.7767V5.49482H48.6347V11.2234Z" fill="#035B8D"/>
<path d="M40.1587 14.9648H34.547C34.0628 14.9648 33.6702 15.3574 33.6702 15.8417V23.3239C33.6702 23.8081 34.0627 24.2008 34.547 24.2008H40.1587C40.6429 24.2008 41.0356 23.8083 41.0356 23.3239V15.8417C41.0356 15.3575 40.6429 14.9648 40.1587 14.9648ZM39.2819 22.4472H35.4239V16.7186H39.2819V22.4472Z" fill="#035B8D"/>
<path d="M49.5114 14.9648H43.8998C43.4156 14.9648 43.0229 15.3574 43.0229 15.8417V23.3239C43.0229 23.8081 43.4155 24.2008 43.8998 24.2008H49.5115C49.9957 24.2008 50.3884 23.8083 50.3884 23.3239V15.8417C50.3883 15.3575 49.9957 14.9648 49.5114 14.9648ZM48.6347 22.4472H44.7767V16.7186H48.6347V22.4472Z" fill="#035B8D"/>
<path d="M27.0648 11.2236C26.5806 11.2236 26.188 11.6162 26.188 12.1005V14.9063C26.188 15.3905 26.5805 15.7831 27.0648 15.7831C27.5492 15.7831 27.9417 15.3906 27.9417 14.9063V12.1004C27.9417 11.6162 27.5491 11.2236 27.0648 11.2236Z" fill="#035B8D"/>
<path d="M23.3236 11.2236C22.8394 11.2236 22.4468 11.6162 22.4468 12.1005V14.9063C22.4468 15.3905 22.8393 15.7831 23.3236 15.7831C23.8079 15.7831 24.2005 15.3906 24.2005 14.9063V12.1004C24.2005 11.6162 23.8079 11.2236 23.3236 11.2236Z" fill="#035B8D"/>
<path d="M19.5824 11.2236C19.0982 11.2236 18.7056 11.6162 18.7056 12.1005V14.9063C18.7056 15.3905 19.0981 15.7831 19.5824 15.7831C20.0667 15.7831 20.4593 15.3906 20.4593 14.9063V12.1004C20.4592 11.6162 20.0666 11.2236 19.5824 11.2236Z" fill="#035B8D"/>
<path d="M27.0648 47.6992C26.5806 47.6992 26.188 48.0918 26.188 48.5761V51.3819C26.188 51.8661 26.5805 52.2587 27.0648 52.2587C27.5492 52.2587 27.9417 51.8662 27.9417 51.3819V48.5761C27.9417 48.0918 27.5491 47.6992 27.0648 47.6992Z" fill="#035B8D"/>
<path d="M23.3236 47.6992C22.8394 47.6992 22.4468 48.0918 22.4468 48.5761V51.3819C22.4468 51.8661 22.8393 52.2587 23.3236 52.2587C23.8079 52.2587 24.2005 51.8662 24.2005 51.3819V48.5761C24.2005 48.0918 23.8079 47.6992 23.3236 47.6992Z" fill="#035B8D"/>
<path d="M19.5824 47.6992C19.0982 47.6992 18.7056 48.0918 18.7056 48.5761V51.3819C18.7056 51.8661 19.0981 52.2587 19.5824 52.2587C20.0667 52.2587 20.4593 51.8662 20.4593 51.3819V48.5761C20.4592 48.0918 20.0666 47.6992 19.5824 47.6992Z" fill="#035B8D"/>
</g>
<defs>
<clipPath id="clip0_888_960">
<rect width="56" height="56" fill="white"/>
</clipPath>
</defs>
</svg>
