<svg width="56" height="56" viewBox="0 0 56 56" fill="none" xmlns="http://www.w3.org/2000/svg">
<path fill-rule="evenodd" clip-rule="evenodd" d="M32.1774 3.19705C28.1722 4.95038 24.7809 6.49436 24.6411 6.62806C24.395 6.8635 24.3871 6.93859 24.3871 9.02583C24.3871 11.1629 24.3894 11.1827 24.6643 11.4576C25.0257 11.8192 25.3338 11.8072 26.25 11.396C26.6653 11.2097 27.0255 11.0573 27.0508 11.0573C27.0761 11.0573 27.0968 12.226 27.0968 13.6545V16.2517H14.7288H2.36069L2.08363 16.5289C1.81379 16.7987 1.80645 16.8514 1.80645 18.5101C1.80645 20.1688 1.81379 20.2215 2.08363 20.4913C2.35053 20.7584 2.41681 20.7685 3.89008 20.7685H5.41935V23.027V25.2854H3.89008C2.41681 25.2854 2.35053 25.2955 2.08363 25.5626C1.81379 25.8324 1.80645 25.8851 1.80645 27.5438C1.80645 29.2025 1.81379 29.2552 2.08363 29.525C2.31113 29.7527 2.47258 29.8022 2.98686 29.8022H3.6129V40.6427V51.4831H2.08363C0.610355 51.4831 0.544081 51.4933 0.277177 51.7604C0.00733869 52.0301 0 52.0829 0 53.7416C0 55.4003 0.00733869 55.453 0.277177 55.7228L0.554242 56H28H55.4458L55.7228 55.7228C55.9927 55.453 56 55.4003 56 53.7416C56 52.0829 55.9927 52.0301 55.7228 51.7604C55.4559 51.4933 55.3896 51.4831 53.9164 51.4831H52.3871V40.6427V29.8022H53.0131C53.5274 29.8022 53.6889 29.7527 53.9164 29.525C54.1862 29.2552 54.1935 29.2025 54.1935 27.5438C54.1935 25.8851 54.1862 25.8324 53.9164 25.5626C53.6889 25.335 53.5274 25.2854 53.0131 25.2854H52.3871V18.1713C52.3871 14.2586 52.4078 11.0573 52.433 11.0573C52.4583 11.0573 52.8186 11.2097 53.2339 11.396C54.1501 11.8072 54.4582 11.8192 54.8196 11.4576C55.0944 11.1829 55.0968 11.1618 55.0968 9.04231C55.0968 7.17053 55.0722 6.87501 54.8992 6.67006C54.6668 6.39476 40.068 -0.0134165 39.7039 2.11038e-05C39.5695 0.00498964 36.1827 1.44372 32.1774 3.19705ZM46.416 4.80065C50.0416 6.39024 53.0716 7.71684 53.1492 7.74869C53.2438 7.78764 53.2903 8.07706 53.2903 8.62755V9.44827L46.6208 6.52643C42.9526 4.91933 39.8607 3.60447 39.75 3.60447C39.5945 3.60447 31.4957 7.0995 26.8427 9.17443L26.1935 9.46396V8.63828V7.81271L32.8831 4.87382C36.5622 3.25746 39.6291 1.92951 39.6982 1.92285C39.7673 1.91618 42.7903 3.21117 46.416 4.80065ZM45.1721 7.8694L50.5242 10.2147L50.5532 17.75L50.5822 25.2854H39.7419H28.9016L28.9307 17.7543L28.9597 10.2232L34.2661 7.88476C37.1847 6.59858 39.6282 5.54119 39.6963 5.5352C39.7644 5.5291 42.2285 6.5795 45.1721 7.8694ZM30.0836 12.012L29.8064 12.2891V15.8V19.3108L30.0836 19.5879L30.3607 19.8652H34.3226H38.2845L38.5615 19.5879L38.8387 19.3108V15.8V12.2891L38.5615 12.012L38.2845 11.7348H34.3226H30.3607L30.0836 12.012ZM40.9223 12.012L40.6452 12.2891V15.8V19.3108L40.9223 19.5879L41.1994 19.8652H45.1613H49.1232L49.4002 19.5879L49.6774 19.3108V15.8V12.2891L49.4002 12.012L49.1232 11.7348H45.1613H41.1994L40.9223 12.012ZM37.0323 15.8V18.0584H34.3226H31.6129V15.8V13.5416H34.3226H37.0323V15.8ZM47.871 15.8V18.0584H45.1613H42.4516V15.8V13.5416H45.1613H47.871V15.8ZM27.0968 18.5101V18.9618H15.3548H3.6129V18.5101V18.0584H15.3548H27.0968V18.5101ZM10.8387 23.027V25.2854H9.03226H7.22581V23.027V20.7685H9.03226H10.8387V23.027ZM16.2581 23.027V25.2854H14.4516H12.6452V23.027V20.7685H14.4516H16.2581V23.027ZM21.6774 23.027V25.2854H19.871H18.0645V23.027V20.7685H19.871H21.6774V23.027ZM27.0968 23.027V25.2854H25.2903H23.4839V23.027V20.7685H25.2903H27.0968V23.027ZM52.3871 27.5438V27.9955H28H3.6129V27.5438V27.0921H28H52.3871V27.5438ZM27.0968 40.6427V51.4831H26.1935H25.2903V45.1595C25.2903 39.5312 25.3095 38.8359 25.4648 38.8359C25.5607 38.8359 25.764 38.7112 25.9164 38.5587C26.1862 38.289 26.1935 38.2362 26.1935 36.5775C26.1935 34.9188 26.1862 34.8661 25.9164 34.5963L25.6393 34.3191H16.2581H6.87682L6.59976 34.5963C6.32992 34.8661 6.32258 34.9188 6.32258 36.5775C6.32258 38.2362 6.32992 38.289 6.59976 38.5587C6.75218 38.7112 6.9554 38.8359 7.05137 38.8359C7.20661 38.8359 7.22581 39.5312 7.22581 45.1595V51.4831H6.32258H5.41935V40.6427V29.8022H16.2581H27.0968V40.6427ZM50.5806 40.6427V51.4831H45.1613H39.7419V45.4368V39.3903L39.4648 39.1132L39.1877 38.8359H34.7742H30.3607L30.0836 39.1132L29.8064 39.3903V45.4368V51.4831H29.3548H28.9032V40.6427V29.8022H39.7419H50.5806V40.6427ZM24.3871 36.5775V37.0292H16.2581H8.12903V36.5775V36.1258H16.2581H24.3871V36.5775ZM23.4839 45.1595V51.4831H16.2581H9.03226V45.1595V38.8359H16.2581H23.4839V45.1595ZM40.9223 39.1132L40.6452 39.3903V42.9011V46.412L40.9223 46.6891L41.1994 46.9663H45.1613H49.1232L49.4002 46.6891L49.6774 46.412V42.9011V39.3903L49.4002 39.1132L49.1232 38.8359H45.1613H41.1994L40.9223 39.1132ZM37.9355 46.0629V51.4831H34.7742H31.6129V46.0629V40.6427H34.7742H37.9355V46.0629ZM47.871 42.9011V45.1595H45.1613H42.4516V42.9011V40.6427H45.1613H47.871V42.9011ZM35.503 44.5334C35.2421 44.7944 35.2258 44.8838 35.2258 46.0629C35.2258 47.242 35.2421 47.3315 35.503 47.5924C35.6776 47.7672 35.9091 47.8697 36.129 47.8697C36.349 47.8697 36.5804 47.7672 36.7551 47.5924C37.016 47.3315 37.0323 47.242 37.0323 46.0629C37.0323 44.8838 37.016 44.7944 36.7551 44.5334C36.5804 44.3586 36.349 44.2562 36.129 44.2562C35.9091 44.2562 35.6776 44.3586 35.503 44.5334ZM54.1935 53.7416V54.1933H28H1.80645V53.7416V53.2899H28H54.1935V53.7416Z" fill="#035B8D"/>
</svg>
